<?xml version="1.0" encoding="utf-8"?>
<!-- Generator: Adobe Illustrator 22.0.1, SVG Export Plug-In . SVG Version: 6.00 Build 0)  -->
<svg version="1.1" id="Capa_1" xmlns="http://www.w3.org/2000/svg" xmlns:xlink="http://www.w3.org/1999/xlink" x="0px" y="0px"
	 viewBox="0 0 56.7 56.7" style="enable-background:new 0 0 56.7 56.7;" xml:space="preserve">
<style type="text/css">
	.st0{fill:#6081C4;}
	.st1{fill:#FFFFFF;}
</style>
<g>
	
		<ellipse id="XMLID_21_" transform="matrix(0.995 -9.995444e-02 9.995444e-02 0.995 -2.6917 2.9757)" class="st0" cx="28.4" cy="28.3" rx="27" ry="27"/>
	<path id="XMLID_19_" class="st1" d="M30.7,22v-2.6c0-1.2,0.8-1.5,1.4-1.5c0.6,0,3.6,0,3.6,0v-5.5l-4.9,0c-5.5,0-6.7,4.1-6.7,6.7V22
		h-3.2v3.9v2.5h3.2c0,7.2,0,16,0,16h6.4c0,0,0-8.8,0-16h4.7l0.2-2.5l0.4-3.9H30.7z"/>
</g>
</svg>
